<svg version="1.1" id="Layer_1" xmlns="http://www.w3.org/2000/svg" xmlns:xlink="http://www.w3.org/1999/xlink" x="0px" y="0px"
	 width="100%" viewBox="0 0 736 1024" enable-background="new 0 0 736 1024" xml:space="preserve">
<path fill="#000000" opacity="1.000000" stroke="none" 
	d="
M502.950439,472.128418 
	C518.192017,496.278259 526.585632,522.248779 528.525208,550.404175 
	C528.914673,556.058289 529.212646,561.687561 529.273315,567.345764 
	C529.301697,569.994385 528.337158,571.488098 525.503967,571.329041 
	C525.172119,571.310425 524.837769,571.343018 524.504639,571.340698 
	C510.322784,571.242798 513.115540,572.388916 512.646973,560.256042 
	C510.925537,515.688904 493.990265,478.034882 459.988861,448.992462 
	C427.837738,421.530487 390.039246,409.864136 348.102112,415.209869 
	C287.511414,422.933441 246.139725,456.206116 224.144241,513.129272 
	C217.851166,529.415466 215.913986,546.656250 216.205368,564.129700 
	C216.325485,571.333435 216.150299,571.336365 209.124756,571.353638 
	C200.228485,571.375488 199.878799,571.393372 199.428986,562.595520 
	C198.657150,547.499634 201.493195,532.746399 205.410583,518.295654 
	C218.477783,470.092163 247.794937,434.711243 292.752563,413.609924 
	C357.013306,383.448425 433.229065,395.579407 483.795441,448.007111 
	C490.849213,455.320557 497.252869,463.233185 502.950439,472.128418 
z"/>
<path fill="#000000" opacity="1.000000" stroke="none" 
	d="
M420.674072,557.988403 
	C420.673615,534.849915 420.673615,512.209839 420.673615,488.222809 
	C417.717072,490.838989 415.483856,492.630280 413.461334,494.634216 
	C398.316406,509.639557 383.129944,524.604919 368.163696,539.787109 
	C364.998260,542.998230 363.122498,543.291138 359.864471,539.822815 
	C345.266144,524.282043 329.969849,509.424011 314.597473,494.650360 
	C312.714874,492.841095 311.047363,490.688751 308.383331,489.770081 
	C306.595459,491.488007 307.369812,493.613647 307.363678,495.482635 
	C307.287872,518.636169 307.169342,541.791199 307.389099,564.942749 
	C307.437347,570.029297 305.802307,571.613403 300.790741,571.435059 
	C285.105499,570.876892 286.995728,573.968750 286.941254,557.720154 
	C286.817261,520.741455 286.845886,483.762115 286.835083,446.783020 
	C286.834564,445.035614 286.360413,443.125366 287.834473,441.665710 
	C313.212585,466.684296 338.472809,491.586670 364.329987,517.077576 
	C389.633331,491.789886 414.642059,466.796631 439.662170,441.791992 
	C441.704010,442.831543 441.000366,444.702087 440.993622,446.232513 
	C440.818146,486.036438 440.546509,525.840088 440.464722,565.644165 
	C440.455872,569.954163 439.167725,571.944275 434.750946,571.327332 
	C434.424377,571.281799 434.085449,571.329529 433.752380,571.325073 
	C418.460632,571.119934 420.955627,573.293335 420.674072,557.988403 
z"/>
<path fill="#000000" opacity="1.000000" stroke="none" 
	d="
M326.732483,453.267639 
	C338.055634,464.570892 349.221405,475.533569 360.149658,486.728149 
	C363.062500,489.711945 364.946838,489.623199 367.820465,486.721924 
	C385.153168,469.222778 402.651306,451.887634 420.058960,434.462524 
	C425.577332,428.938629 425.534576,428.882599 431.052032,434.155487 
	C431.752808,434.825226 432.342957,435.610687 432.959076,436.313660 
	C432.172119,439.152924 429.660065,440.201752 427.954803,441.915894 
	C408.583801,461.387451 389.133636,480.780182 369.730133,500.219421 
	C363.893646,506.066589 363.848724,506.183746 358.113708,500.447144 
	C340.580994,482.909393 323.122253,465.297699 305.617676,447.731781 
	C303.503815,445.610504 301.176422,443.694122 299.146973,441.498810 
	C297.217102,439.411194 293.356873,437.821869 297.231567,433.959198 
	C301.988922,429.216583 302.493286,428.994629 307.108917,433.553925 
	C313.621216,439.986755 320.031982,446.522308 326.732483,453.267639 
z"/>
<path fill="#000000" opacity="1.000000" stroke="none" 
	d="
M142.828033,648.295776 
	C145.153915,653.993652 147.318573,659.342529 149.988388,665.939636 
	C153.344452,657.594360 156.231918,650.421875 159.113251,643.246948 
	C161.064743,638.387451 169.472961,635.530518 173.959045,638.181396 
	C175.562317,639.128662 175.395737,640.694641 175.395264,642.149597 
	C175.391388,653.963318 175.265121,665.777771 175.364288,677.590393 
	C175.392334,680.931580 173.910416,682.039917 170.865189,681.953491 
	C168.067139,681.874023 165.601303,681.853333 165.542542,677.854065 
	C165.436096,670.608582 164.939743,663.368713 164.551971,654.949707 
	C161.348816,662.700439 158.536469,669.389526 155.826706,676.119812 
	C154.748505,678.797729 153.400055,680.504822 150.042191,680.479492 
	C146.633133,680.453796 144.875854,678.996033 143.689133,676.052429 
	C140.960632,669.284363 138.105408,662.567505 135.301605,655.829834 
	C134.870148,655.851501 134.438705,655.873108 134.007263,655.894775 
	C134.007263,662.846191 134.015579,669.797668 134.003021,676.749084 
	C133.998245,679.399780 133.694794,681.660339 130.183273,682.002930 
	C125.231255,682.485962 123.812477,681.495667 123.778961,676.488403 
	C123.704323,665.340393 123.832420,654.189941 123.646065,643.044373 
	C123.581406,639.177063 124.949425,637.434143 128.853394,637.800720 
	C130.008301,637.909241 131.207016,637.983704 132.341583,637.800659 
	C136.882858,637.068176 139.648285,638.827759 140.796387,643.327271 
	C141.203354,644.922302 142.031128,646.410034 142.828033,648.295776 
z"/>
<path fill="#000000" opacity="1.000000" stroke="none" 
	d="
M375.407898,680.913696 
	C367.772003,682.713745 360.421967,681.921143 353.108948,682.036194 
	C349.401306,682.094482 347.660889,680.645386 347.704010,676.713623 
	C347.830048,665.217834 347.734711,653.719482 347.708344,642.222168 
	C347.702972,639.885437 347.935974,637.739319 351.015533,637.767517 
	C357.341431,637.825378 363.694427,637.591675 369.986328,638.098389 
	C380.667175,638.958496 387.447021,648.099121 378.120239,658.405945 
	C388.102234,667.939453 387.252411,676.142883 375.407898,680.913696 
M373.090454,665.291748 
	C369.281006,662.435303 364.878479,663.412781 360.664948,663.498962 
	C358.027161,663.552979 358.219666,665.840332 358.352936,667.591125 
	C358.512695,669.689758 357.108704,672.825623 360.360168,673.405334 
	C363.705902,674.001831 367.278107,674.267212 370.624237,673.039062 
	C374.117188,671.756897 375.885010,669.598389 373.090454,665.291748 
M358.333893,652.198059 
	C360.698700,656.120789 369.519409,656.294617 371.661713,652.464722 
	C372.361969,651.212891 372.514282,649.916443 371.675171,648.722839 
	C368.947296,644.842285 364.870026,646.206360 361.220581,646.241516 
	C357.630524,646.276062 358.422852,649.157410 358.333893,652.198059 
z"/>
<path fill="#000000" opacity="1.000000" stroke="none" 
	d="
M558.548096,648.756958 
	C565.759155,666.078247 557.127625,680.198669 538.449341,681.938843 
	C533.492554,682.400635 528.460144,682.015381 523.463806,682.099548 
	C520.537109,682.148804 519.132568,680.767822 519.153442,677.896545 
	C519.243042,665.576355 519.335022,653.256226 519.458557,640.936340 
	C519.477844,639.012756 520.372375,637.759155 522.485474,637.779968 
	C530.288879,637.857117 538.143372,636.947510 545.828613,639.181213 
	C551.162598,640.731567 555.515320,643.535278 558.548096,648.756958 
M532.059387,646.525635 
	C531.011169,646.869141 530.308899,647.583130 530.298096,648.682861 
	C530.228088,655.824463 530.177979,662.966736 530.194397,670.108582 
	C530.197815,671.574158 530.991943,672.714905 532.571045,672.832031 
	C537.762329,673.217041 543.066101,673.530212 547.038147,669.330750 
	C550.620361,665.543396 551.484131,660.977905 549.937927,655.914368 
	C547.800110,648.913391 543.122375,646.246460 532.059387,646.525635 
z"/>
<path fill="#000000" opacity="1.000000" stroke="none" 
	d="
M298.616516,681.163086 
	C297.324280,667.638184 296.860931,654.385742 297.620239,641.110168 
	C297.749969,638.841919 298.850342,637.733337 301.053131,637.784790 
	C308.018219,637.947388 314.993896,637.200317 321.950378,638.411072 
	C328.169403,639.493469 332.327332,642.667053 333.758911,648.938538 
	C335.182159,655.173340 332.872192,659.988464 327.880035,663.704773 
	C327.235352,664.184631 326.606110,664.685242 325.631927,665.436890 
	C328.866333,670.572998 332.006531,675.559448 335.173370,680.588196 
	C328.632629,683.534485 324.588959,682.503784 321.231079,677.349731 
	C319.507263,674.703735 317.768066,672.066162 316.118103,669.374329 
	C314.502380,666.738342 312.033173,666.713928 309.521057,667.256042 
	C306.762787,667.851318 307.482697,670.267944 307.344269,672.159241 
	C307.271637,673.151978 307.327393,674.153931 307.321259,675.151733 
	C307.277100,682.320374 306.447388,682.945435 298.616516,681.163086 
M317.074127,657.901062 
	C320.926849,657.835815 323.543091,656.164490 323.579559,652.075500 
	C323.618164,647.752502 320.378662,646.764099 316.884979,646.335144 
	C315.905914,646.214966 314.907013,646.240845 313.916870,646.229248 
	C308.024261,646.160156 307.692017,646.807739 307.268890,652.673340 
	C306.886475,657.974792 309.867584,658.296082 313.723663,658.016541 
	C314.545929,657.956848 315.373566,657.971741 317.074127,657.901062 
z"/>
<path fill="#000000" opacity="1.000000" stroke="none" 
	d="
M280.341675,387.595367 
	C270.103577,367.950256 260.147583,348.573883 249.934906,329.333801 
	C247.935028,325.566162 248.621536,323.586243 252.370697,322.125641 
	C253.757889,321.585205 255.057968,320.806793 256.364929,320.078033 
	C258.718658,318.765503 260.436371,319.284943 261.671295,321.700836 
	C272.722290,343.320435 283.783997,364.934479 294.861725,386.540344 
	C296.100677,388.956757 295.561005,390.329987 293.035004,391.640747 
	C284.900482,395.861847 284.957001,395.970764 280.341675,387.595367 
z"/>
<path fill="#000000" opacity="1.000000" stroke="none" 
	d="
M371.273010,322.000061 
	C371.207611,338.640289 371.017975,354.781555 371.153015,370.920105 
	C371.192352,375.620178 369.740601,377.558777 364.833649,377.289032 
	C358.046692,376.915924 357.767883,376.972504 357.755951,370.765045 
	C357.710938,347.303101 357.846832,323.839569 357.585693,300.380249 
	C357.525726,294.994629 360.430878,294.919312 364.223358,295.002563 
	C368.016296,295.085815 371.637604,294.765625 371.338379,300.538635 
	C370.977142,307.508209 371.265350,314.511414 371.273010,322.000061 
z"/>
<path fill="#000000" opacity="1.000000" stroke="none" 
	d="
M315.526306,308.621033 
	C321.343445,330.722351 327.046417,352.432678 332.782349,374.134308 
	C333.492767,376.822205 334.450195,379.225159 330.314667,380.170044 
	C321.997955,382.070160 321.411957,382.065308 320.069763,377.122162 
	C314.147522,355.311127 308.188599,333.509552 302.434631,311.654083 
	C301.651520,308.679504 298.409241,304.657135 304.847137,303.141449 
	C313.338684,301.142273 313.283386,300.907379 315.526306,308.621033 
z"/>
<path fill="#000000" opacity="1.000000" stroke="none" 
	d="
M396.048889,372.203979 
	C401.730988,349.734467 407.310730,327.667999 412.829559,305.586304 
	C413.640228,302.342743 414.850403,300.283356 418.635071,302.156250 
	C419.656464,302.661682 420.856506,302.877869 422.001160,303.049469 
	C425.966614,303.643860 426.594391,305.705139 425.618347,309.417664 
	C419.793030,331.574738 414.242737,353.804016 408.436676,375.966248 
	C406.641418,382.818848 406.465240,382.498047 398.560699,380.736755 
	C392.468658,379.379333 395.764954,375.630310 396.048889,372.203979 
z"/>
<path fill="#000000" opacity="1.000000" stroke="none" 
	d="
M255.633423,670.848755 
	C255.740677,672.777283 255.841431,674.273682 255.887985,675.771790 
	C255.991989,679.119812 255.976059,682.095337 251.159103,682.133606 
	C246.672531,682.169189 245.562012,680.241272 245.574814,676.075134 
	C245.612000,663.985474 245.461441,664.158569 233.317230,664.018127 
	C228.675751,663.964478 226.429504,665.305725 226.833771,670.207275 
	C227.009949,672.343445 226.441299,674.535461 226.557404,676.683411 
	C226.761398,680.457336 225.312897,682.104553 221.386353,682.112244 
	C217.067429,682.120728 216.629166,679.701721 216.658218,676.289673 
	C216.753250,665.125183 216.777618,653.958069 216.633911,642.794556 
	C216.587692,639.203979 217.801636,637.695312 221.521118,637.680664 
	C225.226761,637.666016 227.268036,638.793762 227.078049,642.778381 
	C226.990860,644.606689 227.080383,646.443726 227.101822,648.276733 
	C227.179276,654.901062 227.749954,655.804016 234.152344,655.338501 
	C245.763733,654.494507 245.806564,657.311951 245.565964,643.870850 
	C245.492294,639.754883 246.498856,637.764282 251.068665,637.766174 
	C255.779587,637.768066 256.105530,640.458679 256.039276,643.930664 
	C255.870789,652.759155 255.745132,661.588379 255.633423,670.848755 
z"/>
<path fill="#000000" opacity="1.000000" stroke="none" 
	d="
M443.928070,366.970154 
	C451.427460,352.255066 458.827728,337.905670 466.019104,323.452332 
	C467.730591,320.012512 469.484711,319.156097 472.997101,321.097382 
	C480.375427,325.175354 480.494141,325.066162 476.709717,332.459259 
	C466.773499,351.870453 456.808258,371.266815 446.821259,390.651917 
	C444.266449,395.610870 444.095490,395.342010 436.335663,391.876770 
	C431.740509,389.824768 433.760193,387.316010 435.027008,384.714935 
	C437.870148,378.877380 440.836365,373.099792 443.928070,366.970154 
z"/>
<path fill="#000000" opacity="1.000000" stroke="none" 
	d="
M246.174713,410.807953 
	C232.210678,394.669678 218.466110,378.810181 204.788956,362.892761 
	C203.448242,361.332397 200.905151,359.623901 202.202606,357.416962 
	C204.035324,354.299561 206.883636,351.781738 210.213409,350.170898 
	C211.657608,349.472290 212.554794,351.084381 213.390686,352.061890 
	C228.546082,369.785126 243.650070,387.552490 258.860840,405.227966 
	C261.026520,407.744568 260.915527,409.545776 258.207550,411.311401 
	C257.789337,411.584076 257.389099,411.885681 256.991028,412.187744 
	C251.322144,416.489685 251.322586,416.490265 246.174713,410.807953 
z"/>
<path fill="#000000" opacity="1.000000" stroke="none" 
	d="
M482.914429,409.907440 
	C481.761810,411.355621 480.839417,412.534454 479.918030,413.714142 
	C478.308167,415.775299 476.625458,416.191162 474.440582,414.354340 
	C466.180756,407.410339 465.379425,409.949310 472.796021,401.389618 
	C486.197845,385.922150 499.404205,370.285400 512.715942,354.739746 
	C516.581177,350.225800 524.185120,351.876892 526.022644,357.715820 
	C526.877441,360.432037 524.326782,361.891449 522.914001,363.542358 
	C509.719727,378.960815 496.416656,394.286163 482.914429,409.907440 
z"/>
<path fill="#000000" opacity="1.000000" stroke="none" 
	d="
M163.133545,405.509949 
	C163.185501,400.970276 166.214264,398.364655 168.777542,395.687836 
	C170.808716,393.566681 172.865219,395.820312 174.504791,396.949127 
	C186.704453,405.348206 198.816086,413.875092 210.966858,422.345306 
	C216.290298,426.056244 221.591293,429.803040 226.999695,433.386871 
	C229.716721,435.187317 230.729172,436.780579 228.155899,439.665314 
	C222.085892,446.470093 224.020416,447.917816 214.973694,441.698853 
	C198.924225,430.665985 182.824478,419.706238 166.763672,408.689789 
	C165.537155,407.848541 164.452148,406.800995 163.133545,405.509949 
z"/>
<path fill="#000000" opacity="1.000000" stroke="none" 
	d="
M516.367188,439.402618 
	C513.851929,441.075836 511.561340,442.448914 509.425659,444.031128 
	C506.849426,445.939911 505.130676,445.273834 503.139313,442.930969 
	C497.292450,436.051849 497.226044,436.168762 504.657104,431.084473 
	C521.138184,419.808167 537.670776,408.603668 553.991394,397.099060 
	C557.571106,394.575684 559.508179,394.707031 562.003235,398.311584 
	C566.621704,404.983490 566.841492,404.935730 559.960938,409.659576 
	C545.557434,419.548370 531.097351,429.354828 516.367188,439.402618 
z"/>
<path fill="#000000" opacity="1.000000" stroke="none" 
	d="
M407.534454,639.716187 
	C407.883087,647.940002 408.003510,655.755005 408.218597,663.567322 
	C408.418030,670.810913 411.249786,673.844177 417.580078,673.772766 
	C423.652527,673.704163 426.660919,670.274719 426.729767,663.238464 
	C426.796539,656.412231 426.900879,649.583862 426.790558,642.759644 
	C426.732239,639.151855 428.122223,637.705994 431.802032,637.724670 
	C435.482849,637.743408 437.398315,638.784241 437.265137,642.844299 
	C437.041412,649.664734 437.344910,656.505005 437.039734,663.319641 
	C436.445404,676.588928 430.103577,682.581055 416.823364,682.823303 
	C405.258270,683.034180 397.910248,676.022339 397.714996,664.443420 
	C397.602722,657.785034 397.665741,651.123413 397.682068,644.463318 
	C397.699554,637.348511 400.745148,635.733215 407.534454,639.716187 
z"/>
<path fill="#000000" opacity="1.000000" stroke="none" 
	d="
M551.500916,459.413818 
	C561.837158,456.012421 571.822632,452.818512 581.734619,449.410706 
	C585.321533,448.177521 587.936279,448.172760 588.762390,452.611755 
	C589.415527,456.121368 592.919189,459.916321 586.256653,461.985992 
	C567.835693,467.708527 549.576294,473.949493 531.222046,479.889679 
	C526.197693,481.515778 525.640503,480.761597 522.807922,472.654755 
	C521.259521,468.223389 524.816162,468.463318 527.013611,467.689392 
	C535.014160,464.871582 543.079895,462.239105 551.500916,459.413818 
z"/>
<path fill="#000000" opacity="1.000000" stroke="none" 
	d="
M577.019592,639.812378 
	C584.645508,635.634827 592.074829,636.150635 599.520203,639.065430 
	C601.579346,639.871704 603.674805,640.906311 602.228577,643.834106 
	C601.021667,646.277222 600.045227,648.681030 596.331909,647.254150 
	C592.966858,645.960999 589.444824,644.645081 585.682922,646.125977 
	C584.033569,646.775208 582.640625,647.621765 582.460571,649.527832 
	C582.266785,651.580261 583.775940,652.509094 585.355103,653.123352 
	C588.918091,654.509399 592.587891,655.629395 596.116882,657.092346 
	C602.273926,659.644714 604.810547,663.633118 604.497803,669.822998 
	C604.204346,675.630432 600.892456,679.740967 594.617920,681.467712 
	C587.824280,683.337219 581.093262,682.776306 574.617188,679.967163 
	C572.209473,678.922791 570.231323,677.675842 571.668091,674.301208 
	C573.014893,671.138062 574.697754,670.357056 577.825256,671.895508 
	C581.319275,673.614380 585.120422,674.190735 589.014099,673.733826 
	C591.266113,673.469543 593.329590,672.784912 593.704346,670.099670 
	C594.054688,667.588867 592.272827,666.451965 590.386963,665.710632 
	C586.834473,664.314148 583.049683,663.445679 579.617493,661.817810 
	C569.896362,657.207275 568.648193,647.309021 577.019592,639.812378 
z"/>
<path fill="#000000" opacity="1.000000" stroke="none" 
	d="
M148.901230,464.209900 
	C147.588669,463.759033 146.643326,463.445374 145.695663,463.138855 
	C137.360931,460.443115 136.475540,457.940216 140.966232,450.365906 
	C142.587814,447.630768 144.597733,448.802124 146.600098,449.482666 
	C162.670761,454.944702 178.735016,460.425537 194.801575,465.899628 
	C196.061218,466.328796 197.326889,466.740417 198.584213,467.176178 
	C207.073090,470.118408 206.920288,470.051758 203.332367,478.086151 
	C201.852631,481.399750 199.954300,481.528259 196.992004,480.512756 
	C181.104111,475.066071 165.179382,469.726776 148.901230,464.209900 
z"/>
<path fill="#000000" opacity="1.000000" stroke="none" 
	d="
M352.424561,451.540039 
	C351.305939,450.059784 350.515594,448.758514 349.487183,447.685364 
	C346.971161,445.059753 347.028015,442.677643 349.346802,439.826050 
	C354.037994,434.057007 358.471252,428.078186 363.400787,421.679718 
	C370.052155,428.299011 374.903473,435.370209 379.826080,442.376312 
	C380.430817,443.237061 380.419464,444.356812 379.767517,445.209320 
	C374.650848,451.900177 369.492493,458.559143 363.756470,465.993225 
	C359.721436,460.847565 356.182983,456.335175 352.424561,451.540039 
z"/>
<path fill="#000000" opacity="1.000000" stroke="none" 
	d="
M182.324768,518.657349 
	C166.611237,517.813477 151.339005,517.110718 136.079010,516.202332 
	C132.646225,515.997986 128.539261,516.495422 128.696915,510.654846 
	C128.899734,503.140808 128.977417,502.959961 136.585419,503.446289 
	C150.338257,504.325439 164.105423,504.980438 177.866882,505.724060 
	C180.024780,505.840637 182.237244,505.670349 184.329849,506.096893 
	C187.199234,506.681793 191.615494,505.327148 190.997635,510.997742 
	C190.176682,518.532043 189.405899,519.367737 182.324768,518.657349 
z"/>
<path fill="#000000" opacity="1.000000" stroke="none" 
	d="
M599.428711,507.626465 
	C599.416931,509.359070 599.301636,510.703461 599.439026,512.021484 
	C599.721375,514.729675 598.687439,516.007690 595.873657,516.150635 
	C578.418884,517.037354 560.968628,518.011902 543.516174,518.944885 
	C537.188232,519.283203 538.897156,514.066345 538.105957,510.795105 
	C537.250244,507.257019 539.700012,506.845978 542.536438,506.595642 
	C559.780701,505.073700 577.052917,504.108368 594.356140,503.679962 
	C596.845886,503.618347 599.688232,503.265350 599.428711,507.626465 
z"/>
<path fill="#000000" opacity="1.000000" stroke="none" 
	d="
M322.831238,538.972229 
	C320.709625,542.723816 320.159912,546.425171 320.223145,550.331116 
	C320.309143,555.643921 320.219788,560.962646 320.068665,566.274902 
	C320.007111,568.437378 319.182251,570.213562 316.512848,570.113953 
	C313.950714,570.018311 313.757812,568.184875 313.705170,566.263306 
	C313.677887,565.267029 313.674469,564.269836 313.674377,563.273071 
	C313.672638,545.495972 313.661652,527.718872 313.692078,509.941803 
	C313.694855,508.326111 313.289673,506.620941 314.888977,504.195587 
	C323.585602,511.369843 331.067627,519.521545 339.688080,527.844910 
	C332.901642,530.857422 326.422272,532.567932 322.831238,538.972229 
z"/>
<path fill="#000000" opacity="1.000000" stroke="none" 
	d="
M399.954163,532.996521 
	C396.741089,530.520691 393.073334,529.789368 388.561890,527.625671 
	C396.918427,519.487793 404.790466,511.821686 412.647461,504.170227 
	C414.784790,506.105682 414.306213,507.699158 414.308777,509.112488 
	C414.342102,527.591003 414.332184,546.069519 414.306854,564.548035 
	C414.304840,566.015564 414.651520,567.615234 413.613007,568.874146 
	C412.794342,569.866577 411.573975,569.896362 410.384216,569.673523 
	C408.483948,569.317749 408.159180,567.787537 408.114288,566.269409 
	C407.951904,560.779114 407.739777,555.283569 407.824646,549.794373 
	C407.929626,543.001648 405.592163,537.451050 399.954163,532.996521 
z"/>
<path fill="#000000" opacity="1.000000" stroke="none" 
	d="
M481.321075,637.932434 
	C488.371521,638.051270 488.363312,638.051270 488.361206,644.640198 
	C488.358704,652.472778 488.452240,660.306580 488.341370,668.137451 
	C488.293152,671.543762 489.665527,672.996460 493.081787,672.899536 
	C497.076691,672.786133 501.079590,672.884888 505.077423,672.967712 
	C507.695923,673.022034 509.128906,674.297424 508.823486,677.072876 
	C508.563110,679.439087 508.396271,681.910278 505.091644,681.924133 
	C497.426849,681.956299 489.761963,681.978577 482.097137,681.988892 
	C479.448883,681.992432 478.088013,680.628784 478.078583,677.987427 
	C478.035675,665.989136 477.992340,653.990845 477.993500,641.992554 
	C477.993683,640.041931 478.544830,638.328003 481.321075,637.932434 
z"/>
<path fill="#000000" opacity="1.000000" stroke="none" 
	d="
M196.013901,637.892151 
	C199.771790,637.665894 201.323395,639.042297 201.286453,642.524292 
	C201.164856,653.986511 201.119919,665.451233 201.228699,676.913330 
	C201.266174,680.861938 199.505386,682.156616 195.787033,682.116455 
	C192.202591,682.077881 190.721283,680.634155 190.762070,677.017517 
	C190.891281,665.555298 190.908966,654.090820 190.831741,642.628113 
	C190.808853,639.229187 192.182632,637.670105 196.013901,637.892151 
z"/>
<path fill="#000000" opacity="1.000000" stroke="none" 
	d="
M451.851562,651.026245 
	C451.860992,648.365662 451.834076,646.198608 451.889465,644.033691 
	C452.029388,638.565918 453.630615,637.265259 458.947784,637.933044 
	C461.139404,638.208313 462.275208,639.125732 462.272095,641.403870 
	C462.255219,653.733643 462.265991,666.063354 462.269989,678.393127 
	C462.271210,682.117798 459.591339,681.976807 457.031982,682.065491 
	C453.861755,682.175415 451.950592,681.053284 451.959808,677.513489 
	C451.982330,668.849426 451.895508,660.184998 451.851562,651.026245 
z"/>
<path fill="#000000" opacity="1.000000" stroke="none" 
	d="
M281.943756,655.004150 
	C281.847931,662.973267 281.669556,670.444031 281.706177,677.913757 
	C281.723114,681.364624 279.919647,682.130127 276.972778,681.978027 
	C274.097534,681.829529 271.675079,681.463196 271.694458,677.666382 
	C271.755493,665.709839 271.751038,653.752441 271.670166,641.796021 
	C271.645721,638.180237 273.912689,637.907532 276.613434,637.847839 
	C279.327820,637.787842 281.764404,638.070984 281.845612,641.555725 
	C281.946198,645.870728 281.920349,650.188660 281.943756,655.004150 
z"/>
</svg>